<?xml version="1.0" standalone="no"?>
<!DOCTYPE svg PUBLIC "-//W3C//DTD SVG 20010904//EN"
 "http://www.w3.org/TR/2001/REC-SVG-20010904/DTD/svg10.dtd">
<svg version="1.0" xmlns="http://www.w3.org/2000/svg"
 width="512.000000pt" height="512.000000pt" viewBox="0 0 512.000000 512.000000"
 preserveAspectRatio="xMidYMid meet">

<g transform="translate(0.000000,512.000000) scale(0.100000,-0.100000)"
fill="#000000" stroke="none">
<path d="M1404 4830 c-558 -59 -1025 -401 -1245 -911 -182 -421 -167 -889 42
-1298 149 -291 394 -544 654 -673 81 -41 253 -99 375 -127 253 -59 550 -46
797 35 112 37 286 122 389 190 102 68 261 216 345 322 164 205 291 508 314
747 13 138 10 135 63 63 106 -145 237 -393 317 -598 217 -555 334 -1295 335
-2122 l0 -137 27 -21 c20 -16 36 -20 58 -16 60 13 64 23 75 231 55 1019 337
1711 788 1939 30 15 57 26 62 24 5 -2 -21 -39 -57 -83 -87 -108 -99 -134 -82
-171 8 -16 26 -34 40 -41 47 -23 76 -1 184 134 223 282 228 291 183 336 -30
29 -448 207 -487 207 -20 0 -36 -8 -50 -26 -48 -61 -16 -106 118 -162 l94 -39
-83 -42 c-327 -163 -567 -522 -718 -1071 -44 -159 -44 -159 -63 0 -17 149 -66
410 -110 590 -132 541 -365 1030 -622 1306 -63 68 -69 77 -78 136 -37 229
-129 455 -267 653 -81 116 -267 299 -382 374 -303 199 -663 288 -1016 251z
m-112 -210 c-57 -27 -116 -59 -133 -71 -33 -23 -62 -21 -100 9 l-23 19 82 27
c70 24 233 63 267 65 6 0 -36 -22 -93 -49z m-381 -171 l61 -30 -82 -82 c-86
-86 -165 -186 -221 -280 -29 -49 -40 -59 -74 -67 -22 -6 -89 -26 -150 -45 -60
-19 -111 -33 -112 -31 -6 6 99 173 153 243 69 90 179 195 280 267 44 30 80 56
82 56 1 0 30 -14 63 -31z m-371 -656 c0 -6 -37 -144 -46 -171 -3 -11 -8 -10
-26 2 -30 22 -91 20 -111 -2 -22 -25 -35 -89 -43 -224 l-7 -117 31 -30 c33
-34 66 -39 99 -16 21 15 22 14 28 -32 3 -27 7 -63 10 -80 3 -31 2 -33 -26 -33
-38 0 -79 -40 -79 -76 0 -30 53 -134 81 -160 10 -9 35 -18 55 -19 35 -2 37 -4
69 -85 19 -45 43 -96 53 -114 11 -19 21 -61 25 -107 7 -84 37 -189 74 -262 13
-27 23 -51 21 -52 -8 -8 -161 131 -218 198 -160 187 -259 392 -311 637 -37
180 -28 462 22 615 10 33 28 43 184 101 92 34 115 39 115 27z m497 -1636 c30
-20 44 -47 25 -47 -4 0 -30 23 -57 52 -28 28 -39 44 -25 35 14 -10 40 -27 57
-40z m198 -127 c3 -5 -1 -10 -9 -10 -9 0 -16 5 -16 10 0 6 4 10 9 10 6 0 13
-4 16 -10z"/>
</g>
</svg>
